<svg width="154" height="94" viewBox="0 0 154 94" fill="none" xmlns="http://www.w3.org/2000/svg">
<path d="M136.559 56.8938C137.591 51.3978 136.978 45.7194 134.795 40.5707C132.613 35.4221 128.959 31.0323 124.292 27.952C119.625 24.8717 114.152 23.2379 108.56 23.2555C102.968 23.2731 97.5056 24.9414 92.8579 28.0511C89.4822 19.8455 83.3635 13.0657 75.5459 8.86901C67.7283 4.67232 58.6965 3.31884 49.9921 5.03959C41.2877 6.76035 33.4504 11.4487 27.8177 18.3043C22.185 25.16 19.1062 33.758 19.1068 42.6308C19.1068 43.106 19.1068 43.5736 19.1068 44.0413C13.6039 45.6096 8.80755 49.0222 5.52195 53.7068C2.23634 58.3915 0.661302 64.0634 1.06093 69.7714C1.46057 75.4794 3.81057 80.8765 7.71689 85.0577C11.6232 89.2388 16.8483 91.9498 22.5161 92.736V93H135.338C139.921 92.841 144.274 90.948 147.516 87.7035C150.757 84.459 152.647 80.105 152.802 75.5211C152.957 70.9373 151.366 66.4654 148.351 63.0091C145.336 59.5529 141.122 57.3699 136.559 56.9013V56.8938Z" fill="#263238" stroke="#263238" stroke-linecap="round" stroke-linejoin="round"/>
<path d="M136.559 53.4997C137.591 48.0036 136.978 42.3253 134.795 37.1766C132.613 32.0279 128.959 27.6382 124.292 24.5579C119.625 21.4776 114.152 19.8438 108.56 19.8614C102.968 19.879 97.5056 21.5473 92.8579 24.6569C89.4825 16.4519 83.3643 9.67253 75.5475 5.47576C67.7307 1.27899 58.6997 -0.0750447 49.9958 1.64473C41.2919 3.3645 33.4546 8.05149 27.8213 14.9058C22.188 21.7601 19.108 30.357 19.1068 39.2291C19.1068 39.7043 19.1068 40.172 19.1068 40.6396C13.6039 42.2079 8.80755 45.6205 5.52195 50.3052C2.23634 54.9898 0.661302 60.6617 1.06093 66.3697C1.46057 72.0778 3.81057 77.4749 7.71689 81.656C11.6232 85.8372 16.8483 88.5481 22.5161 89.3343V89.5983H135.338C139.921 89.4393 144.274 87.5464 147.516 84.3019C150.757 81.0574 152.647 76.7033 152.802 72.1195C152.957 67.5356 151.366 63.0637 148.351 59.6075C145.336 56.1512 141.122 53.9682 136.559 53.4997V53.4997Z" fill="#92E3A9" stroke="#263238" stroke-linecap="round" stroke-linejoin="round"/>
<path d="M38.9961 77.8262C37.5332 79.5488 35.4551 80.4102 32.7617 80.4102C30.3555 80.4102 28.5303 79.7061 27.2861 78.2979C26.0557 76.8896 25.4404 74.8525 25.4404 72.1865V57.8105H30.4238V72.125C30.4238 74.9414 31.5928 76.3496 33.9307 76.3496C36.3506 76.3496 37.9844 75.4814 38.832 73.7451V57.8105H43.8154V80H39.1191L38.9961 77.8262ZM68.3223 69.1309C68.3223 72.5625 67.543 75.3037 65.9844 77.3545C64.4258 79.3916 62.334 80.4102 59.709 80.4102C57.2754 80.4102 55.3271 79.6104 53.8643 78.0107V88.5312H48.8809V57.8105H53.4746L53.6797 60.0664C55.1426 58.2891 57.1318 57.4004 59.6475 57.4004C62.3545 57.4004 64.4736 58.4121 66.0049 60.4355C67.5498 62.4453 68.3223 65.2412 68.3223 68.8232V69.1309ZM63.3594 68.7002C63.3594 66.4854 62.915 64.7285 62.0264 63.4297C61.1514 62.1309 59.8936 61.4814 58.2529 61.4814C56.2158 61.4814 54.7529 62.3223 53.8643 64.0039V73.8477C54.7666 75.5703 56.2432 76.4316 58.2939 76.4316C59.8799 76.4316 61.1172 75.7959 62.0059 74.5244C62.9082 73.2393 63.3594 71.2979 63.3594 68.7002ZM85.8154 80C85.5967 79.5762 85.4053 78.8857 85.2412 77.9287C83.6553 79.583 81.7139 80.4102 79.417 80.4102C77.1885 80.4102 75.3701 79.7744 73.9619 78.5029C72.5537 77.2314 71.8496 75.6592 71.8496 73.7861C71.8496 71.4209 72.7246 69.6094 74.4746 68.3516C76.2383 67.0801 78.7539 66.4443 82.0215 66.4443H85.0771V64.9883C85.0771 63.8398 84.7559 62.9238 84.1133 62.2402C83.4707 61.543 82.4932 61.1943 81.1807 61.1943C80.0459 61.1943 79.1162 61.4814 78.3916 62.0557C77.667 62.6162 77.3047 63.334 77.3047 64.209H72.3213C72.3213 62.9922 72.7246 61.8574 73.5312 60.8047C74.3379 59.7383 75.4316 58.9043 76.8125 58.3027C78.207 57.7012 79.7588 57.4004 81.4678 57.4004C84.0654 57.4004 86.1367 58.0566 87.6816 59.3691C89.2266 60.668 90.0195 62.5 90.0605 64.8652V74.873C90.0605 76.8691 90.3408 78.4619 90.9014 79.6514V80H85.8154ZM80.3398 76.4111C81.3242 76.4111 82.2471 76.1719 83.1084 75.6934C83.9834 75.2148 84.6396 74.5723 85.0771 73.7656V69.582H82.3906C80.5449 69.582 79.1572 69.9033 78.2275 70.5459C77.2979 71.1885 76.833 72.0977 76.833 73.2734C76.833 74.2305 77.1475 74.9961 77.7764 75.5703C78.4189 76.1309 79.2734 76.4111 80.3398 76.4111ZM112.476 73.0479H100.909L98.4893 80H93.0957L104.375 50.1406H109.03L120.33 80H114.916L112.476 73.0479ZM102.365 68.8643H111.02L106.692 56.4775L102.365 68.8643ZM128.554 80H123.57V57.8105H128.554V80ZM123.263 52.0479C123.263 51.2822 123.502 50.6465 123.98 50.1406C124.473 49.6348 125.17 49.3818 126.072 49.3818C126.975 49.3818 127.672 49.6348 128.164 50.1406C128.656 50.6465 128.902 51.2822 128.902 52.0479C128.902 52.7998 128.656 53.4287 128.164 53.9346C127.672 54.4268 126.975 54.6729 126.072 54.6729C125.17 54.6729 124.473 54.4268 123.98 53.9346C123.502 53.4287 123.263 52.7998 123.263 52.0479Z" fill="#F97474"/>
</svg>
